<?xml version="1.0" encoding="UTF-8" standalone="no"?>
<!-- Created with Inkscape (http://www.inkscape.org/) -->

<svg
   xmlns:dc="http://purl.org/dc/elements/1.1/"
   xmlns:cc="http://creativecommons.org/ns#"
   xmlns:rdf="http://www.w3.org/1999/02/22-rdf-syntax-ns#"
   xmlns:svg="http://www.w3.org/2000/svg"
   xmlns="http://www.w3.org/2000/svg"
   xmlns:sodipodi="http://sodipodi.sourceforge.net/DTD/sodipodi-0.dtd"
   xmlns:inkscape="http://www.inkscape.org/namespaces/inkscape"
   width="210mm"
   height="297mm"
   viewBox="0 0 744.09448819 1052.3622047"
   id="svg2"
   version="1.1"
   inkscape:version="0.91 r13725"
   sodipodi:docname="a4_quarter_with_logo.svg">
  <defs
     id="defs4" />
  <sodipodi:namedview
     id="base"
     pagecolor="#ffffff"
     bordercolor="#666666"
     borderopacity="1.0"
     inkscape:pageopacity="0.0"
     inkscape:pageshadow="2"
     inkscape:zoom="0.98994949"
     inkscape:cx="654.49363"
     inkscape:cy="282.04837"
     inkscape:document-units="mm"
     inkscape:current-layer="layer1"
     showgrid="false"
     inkscape:window-width="1920"
     inkscape:window-height="1054"
     inkscape:window-x="1280"
     inkscape:window-y="0"
     inkscape:window-maximized="1"
     showguides="true"
     inkscape:guide-bbox="true">
    <sodipodi:guide
       position="372.05971,929.29301"
       orientation="1,0"
       id="guide4226" />
    <sodipodi:guide
       position="558.07087,550.00001"
       orientation="1,0"
       id="guide4310"
       inkscape:label=""
       inkscape:color="rgb(0,0,255)" />
    <sodipodi:guide
       position="0,0"
       orientation="0,744.09449"
       id="guide4331" />
    <sodipodi:guide
       position="744.09449,0"
       orientation="-1052.3622,0"
       id="guide4333" />
    <sodipodi:guide
       position="744.09449,1052.3622"
       orientation="0,-744.09449"
       id="guide4335" />
    <sodipodi:guide
       position="0,1052.3622"
       orientation="1052.3622,0"
       id="guide4337" />
  </sodipodi:namedview>
  <metadata
     id="metadata7">
    <rdf:RDF>
      <cc:Work
         rdf:about="">
        <dc:format>image/svg+xml</dc:format>
        <dc:type
           rdf:resource="http://purl.org/dc/dcmitype/StillImage" />
        <dc:title />
      </cc:Work>
    </rdf:RDF>
  </metadata>
  <g
     inkscape:label="Layer 1"
     inkscape:groupmode="layer"
     id="layer1">
    <path
       style="fill:#666666;fill-rule:evenodd;stroke:#b3b3b3;stroke-width:0.90380973px;stroke-linecap:butt;stroke-linejoin:miter;stroke-opacity:1"
       d="m -20.316893,526.1811 c 779.529323,0 779.529323,0 779.529323,0"
       id="path4136"
       inkscape:connector-curvature="0" />
    <flowRoot
       xml:space="preserve"
       id="flowRoot4339"
       style="font-style:normal;font-variant:normal;font-weight:normal;font-stretch:normal;font-size:40px;line-height:125%;font-family:FreeMono;-inkscape-font-specification:'FreeMono, Normal';text-align:start;letter-spacing:0px;word-spacing:0px;writing-mode:lr-tb;text-anchor:start;fill:#000000;fill-opacity:1;stroke:none;stroke-width:1px;stroke-linecap:butt;stroke-linejoin:miter;stroke-opacity:1"
       transform="translate(69.700526,0)"><flowRegion
         id="flowRegion4341"><rect
           id="rect4343"
           width="260.61935"
           height="132.32999"
           x="428.30469"
           y="857.40277"
           style="font-style:normal;font-variant:normal;font-weight:normal;font-stretch:normal;font-size:40px;line-height:125%;font-family:FreeMono;-inkscape-font-specification:'FreeMono, Normal';text-align:start;writing-mode:lr-tb;text-anchor:start" /></flowRegion><flowPara
         id="flowPara4345">NOTES</flowPara></flowRoot>    <path
       style="fill:#000000"
       d="m 546.82338,767.21543 c -5.71286,-0.42082 -11.65008,-1.62309 -20.00368,-4.0507 -14.91534,-4.33449 -24.36954,-10.1457 -36.62075,-22.50966 -5.38697,-5.43656 -9.81189,-10.69312 -12.77792,-15.17946 -5.90257,-8.92809 -7.0283,-11.22859 -10.18788,-20.81947 -3.87136,-11.75142 -5.03702,-18.69933 -5.0851,-30.30947 -0.15674,-37.85057 17.96211,-68.11701 52.15165,-87.11613 6.30429,-3.5033 18.13175,-7.72188 25.29617,-9.02257 5.86601,-1.06496 23.67171,-0.8568 30.21838,0.35329 17.90947,3.31037 24.14729,5.59305 36.90275,13.50423 8.48736,5.26403 21.71512,17.65475 27.18804,25.46759 8.71204,12.43686 16.04811,32.80734 16.98979,47.17651 0.42269,6.45007 -0.45849,18.87322 -1.9249,27.13758 -2.92913,16.50798 -12.37986,35.02524 -24.02342,47.07025 -20.67133,21.38401 -46.24223,30.64639 -78.12313,28.29801 z m 8.10458,-6.74344 c 0.28187,-0.2537 -1.71819,-7.33246 -3.32803,-11.77884 -1.14473,-3.16169 -9.63423,-19.05115 -10.82663,-20.26374 -0.25834,-0.26271 -1.1708,0.0522 -2.02769,0.69967 l -1.55798,1.17733 4.1362,6.99587 c 3.78189,6.39661 8.84458,19.02864 7.97489,19.89833 -0.61927,0.61927 -10.52751,-1.10841 -14.6338,-2.55165 -2.14754,-0.7548 -5.05922,-2.30022 -6.4704,-3.43428 -3.98733,-3.20431 -7.89172,-2.36555 -4.71736,1.01341 4.61201,4.90926 20.45919,9.79282 28.49343,8.7807 1.50985,-0.1902 2.84067,-0.43176 2.95737,-0.5368 z m 12.00965,-0.38477 c 11.72299,-1.73998 18.22726,-4.69432 25.38818,-11.53167 3.28351,-3.13514 7.15179,-9.98 7.74832,-13.71055 0.42608,-2.6645 0.34968,-2.85199 -1.1762,-2.88651 -0.98447,-0.0222 -0.13439,-0.52105 2.14274,-1.25726 4.64537,-1.50189 8.78136,-3.59665 13.75354,-6.96579 4.61819,-3.12928 5.16564,-3.77402 5.80665,-6.83852 l 0.50244,-2.40203 -1.6242,1.47091 c -4.2157,3.81778 -17.65391,11.32313 -20.00216,11.17136 -0.63935,-0.0413 -0.6347,-0.13633 0.0196,-0.40034 1.28588,-0.51886 1.05466,-7.76937 -0.48585,-15.23517 -0.72912,-3.5336 -1.5045,-6.60354 -1.72306,-6.82209 -0.21855,-0.21856 -0.91662,0.12186 -1.55125,0.75649 -1.03232,1.03233 -1.06471,1.67386 -0.30742,6.09002 0.46555,2.71487 1.03912,7.27298 1.27461,10.12913 0.23548,2.85615 0.72055,5.38452 1.07794,5.6186 0.70608,0.46248 -1.81368,0.99076 -7.72152,1.61886 -3.46249,0.36811 -8.32706,-0.18309 -12.17339,-1.37937 -1.81446,-0.56433 -3.06353,1.48936 -1.49531,2.45857 2.38297,1.47276 11.39313,2.86329 15.86189,2.44797 l 4.6103,-0.42848 -0.93228,2.64237 c -2.66744,7.56031 -8.41308,13.97691 -15.20505,16.98065 -3.98539,1.76252 -14.20671,4.40134 -17.04837,4.40134 l -1.62245,0 1.38844,-4.62803 c 0.76364,-2.54541 2.13772,-6.32227 3.05349,-8.39301 1.56495,-3.53861 1.59336,-3.8174 0.47257,-4.63694 -1.7078,-1.24877 -2.25199,-1.0948 -2.98987,0.84597 -0.35924,0.94487 -1.32099,3.18391 -2.13722,4.97564 -2.28604,5.01813 -4.495,11.22198 -5.00867,14.06683 l -0.46471,2.5736 2.81639,0 c 1.54901,0 5.03737,-0.32965 7.75192,-0.73255 z m -36.83808,-13.06936 c 5.18103,-1.5983 12.60609,-5.12015 12.60609,-5.97934 0,-0.29988 -0.38604,-1.0569 -0.85787,-1.68226 -0.78588,-1.04159 -1.20344,-0.97074 -4.97564,0.84423 -12.5974,6.06117 -25.57291,5.42246 -31.6271,-1.55682 -1.37101,-1.5805 -2.77704,-3.66155 -3.1245,-4.62456 -0.59053,-1.6367 -4.43773,-4.58395 -5.10832,-3.91336 -0.62486,0.62485 1.87377,6.35066 3.95351,9.0598 7.18266,9.35636 16.296,11.81264 29.13383,7.85231 z m -9.79234,-8.30699 c -0.89203,-2.72334 -1.62188,-5.76857 -1.62188,-6.76715 0,-0.99859 -0.1964,-3.24847 -0.43643,-4.99974 -0.40368,-2.94521 -0.58391,-3.18411 -2.40203,-3.18411 -1.5849,0 -1.96297,0.29907 -1.95201,1.54416 0.0254,2.88707 1.38076,11.01589 2.4499,14.69363 1.00905,3.47098 1.18484,3.66475 3.32485,3.66475 l 2.25947,0 -1.62187,-4.95154 z m 70.16473,4.42631 c 0.41532,-0.27732 1.12106,-1.19909 1.56831,-2.04838 0.80396,-1.52664 0.7624,-1.54416 -3.66368,-1.54416 -9.6867,0 -21.5779,-5.52372 -27.97175,-12.99349 l -2.49908,-2.91963 -1.13859,2.20177 c -1.13265,2.19031 -1.12666,2.21424 1.15021,4.59414 3.22999,3.37615 9.1619,7.29821 14.32477,9.47123 6.96317,2.93076 16.22624,4.57634 18.22981,3.23852 z m 11.59817,-1.2567 c 3.58413,-0.82605 10.16225,-4.44748 14.0039,-7.70954 6.64169,-5.63965 9.18913,-11.14228 9.06093,-19.5722 -0.0666,-4.3833 -1.55685,-11.8886 -2.80334,-14.11895 -0.81589,-1.45989 -2.74812,2.62537 -2.08439,4.40698 0.28124,0.75492 0.73381,3.47514 1.00571,6.04492 0.84597,7.99534 -1.97318,16.11079 -7.12987,20.52472 -3.04042,2.6025 -8.82453,5.62238 -12.11158,6.32345 -1.53101,0.32655 -2.43751,1.12267 -3.2728,2.87429 -1.09632,2.299 -1.09333,2.40423 0.0586,2.06175 0.66766,-0.19849 2.14042,-0.57443 3.2728,-0.83542 z m -47.03584,-14.67595 c 3.89895,-6.71955 7.67692,-15.76483 7.20524,-17.25094 -0.22557,-0.71071 -0.27129,-1.2922 -0.10162,-1.2922 0.16969,0 1.10915,2.56791 2.0877,5.70646 1.61216,5.17075 5.15363,11.4509 6.45734,11.4509 0.2843,0 0.89594,-0.60693 1.35921,-1.34874 0.69447,-1.11202 0.61451,-1.74441 -0.45553,-3.60304 -2.17879,-3.78453 -5.9415,-14.63761 -9.76064,-28.15339 -2.86572,-10.14166 -3.7835,-12.60746 -4.3425,-11.66701 -1.52575,2.56693 -0.61578,11.13625 1.97233,18.57343 2.43698,7.00288 3.06592,9.67997 1.8062,7.68804 -0.53501,-0.84599 -0.71575,-0.7902 -1.11176,0.34315 -2.04794,5.86094 -5.76117,13.20977 -9.5515,18.90329 -2.47294,3.71465 -4.79387,6.93784 -5.15762,7.16264 -0.38902,0.24044 -0.18154,1.14101 0.50388,2.18709 l 1.16521,1.77834 2.66401,-3.00197 c 1.4652,-1.65108 3.83223,-5.0153 5.26005,-7.47605 z m -40.46671,7.92388 c 0,-0.16417 -0.28471,-1.04733 -0.6327,-1.9626 -0.46564,-1.22474 -1.32638,-1.77753 -3.2599,-2.0936 -6.18128,-1.01045 -14.37868,-6.07976 -22.06728,-13.6465 -8.77575,-8.63666 -12.36002,-16.26562 -14.29561,-30.42755 -0.59509,-4.35402 -0.94957,-8.0488 -0.78775,-8.21063 0.32148,-0.32147 8.45055,2.51251 10.77441,3.7562 1.34098,0.71767 1.44446,0.60037 1.44446,-1.6373 0,-1.75096 -0.42242,-2.67915 -1.54416,-3.39293 -2.25672,-1.436 -7.92359,-3.21227 -11.667,-3.65702 l -3.2599,-0.3873 0,3.05598 c 0,4.1404 1.81676,17.27092 2.97458,21.49867 3.56427,13.01471 14.07041,25.22563 28.26709,32.85385 4.87072,2.61716 14.05376,5.39468 14.05376,4.25073 z m 17.15737,-3.19295 c 6.65453,-3.15905 10.02313,-6.11094 13.52041,-11.84785 2.35787,-3.86785 2.41023,-4.09479 1.42471,-6.17576 l -1.02313,-2.16034 -1.77741,3.43057 c -3.82823,7.38888 -12.03377,13.93472 -19.90181,15.87636 -3.4761,0.85781 -4.56558,1.39911 -4.28543,2.12917 0.20661,0.53841 0.37565,1.30198 0.37565,1.69682 0,1.32664 5.69007,-0.11159 11.66701,-2.94897 z m 41.27982,-0.4485 c 0.87268,-1.41202 3.06456,-4.49549 4.87083,-6.85214 l 3.28414,-4.28483 -1.48232,-1.48232 -1.48232,-1.48232 -2.17455,2.51629 c -1.196,1.38396 -3.49991,4.72903 -5.11981,7.43349 -2.76215,4.6115 -2.86866,4.97323 -1.71311,5.81818 1.77839,1.3004 2.05941,1.17772 3.81714,-1.66635 z M 498.5428,719.12738 c -0.018,-6.49217 1.5936,-14.99486 3.84555,-20.28942 1.28817,-3.02865 1.31372,-3.39505 0.30681,-4.40196 -1.50753,-1.50753 -2.70762,-0.40771 -4.50595,4.12951 -2.20504,5.56339 -3.52421,12.41964 -3.52421,18.31676 0,5.08169 0.10813,5.4712 1.88731,6.79861 1.03802,0.77445 1.91426,1.41788 1.94721,1.42984 0.0329,0.0119 0.0524,-2.68055 0.0433,-5.98334 z m 37.37055,4.91167 c 1.14023,-1.0319 1.00247,-1.36157 -2.44858,-5.8597 -3.9922,-5.20344 -11.95228,-13.9701 -12.30623,-13.55319 -0.12169,0.14334 -0.41761,1.08043 -0.65758,2.08243 -0.36976,1.54386 0.18052,2.5025 3.60673,6.28318 2.22368,2.45374 5.3476,6.18921 6.94203,8.30102 1.59444,2.11182 3.06918,3.83967 3.2772,3.83967 0.20803,0 0.92192,-0.49203 1.58643,-1.09341 z m -12.95876,-2.03579 c 1.72766,-0.58867 3.63818,-1.61946 4.24558,-2.29063 1.01776,-1.12462 1.00629,-1.30909 -0.1463,-2.35217 -1.16494,-1.05426 -1.43401,-1.03837 -3.92528,0.23175 -5.27667,2.6902 -14.71324,1.36583 -20.5712,-2.88704 l -2.74518,-1.993 -0.21959,2.15318 c -0.14874,1.45848 0.1834,2.47019 1.02944,3.13574 5.64343,4.43941 15.73936,6.24869 22.33253,4.00217 z m 25.37929,-16.2895 c -3.47437,-6.8717 -7.97971,-16.18821 -10.01189,-20.70335 -2.03218,-4.51516 -3.96183,-8.29572 -4.28811,-8.40127 -0.32628,-0.10554 -0.97106,0.62172 -1.43285,1.61613 -0.73346,1.57943 -0.57174,2.42471 1.27906,6.68553 1.16527,2.68262 3.28833,7.19374 4.71792,10.0247 1.42958,2.83096 4.2373,8.8154 6.23937,13.29876 2.00206,4.48336 4.54638,9.57909 5.65403,11.32386 l 2.01392,3.17231 1.07278,-2.26134 1.07279,-2.26134 -6.31702,-12.49399 z m 47.06808,16.09342 c 1.69,-1.07233 0.13992,-2.85054 -2.4987,-2.86644 -6.29784,-0.038 -11.41966,-4.7289 -12.8752,-11.79205 -1.37651,-6.67967 0.81842,-15.01515 4.83069,-18.34505 0.83343,-0.69168 0.89419,-1.18392 0.28974,-2.34732 -0.42066,-0.80964 -0.85063,-1.57399 -0.9555,-1.69853 -0.43759,-0.51969 -5.14842,5.2648 -6.61188,8.11883 -1.35642,2.64528 -1.58407,4.12208 -1.5869,10.29441 -0.003,6.4917 0.18552,7.59062 1.90145,11.08479 1.97531,4.02235 3.67243,5.54252 7.94,7.11211 2.82374,1.03857 8.23053,1.28683 9.5663,0.43925 z m 9.79367,-3.42905 c 9.71478,-6.20969 17.42907,-18.88128 19.38966,-31.84974 0.33481,-2.21461 0.25573,-2.24039 -2.27916,-0.74299 -1.62526,0.96006 -2.07082,1.87169 -2.76727,5.66193 -1.10596,6.01889 -2.01179,8.08238 -6.22047,14.17046 -3.55197,5.1381 -6.9494,8.38541 -10.43431,9.97324 -1.37037,0.62438 -1.84343,1.34 -1.84343,2.78865 0,2.42255 0.36277,2.42242 4.15498,-10e-4 z m -86.50508,-4.39796 c 0.005,-4.24768 1.0313,-8.25855 4.37086,-17.08501 1.72406,-4.5567 1.72432,-4.56109 0.34847,-5.80622 -1.7156,-1.55259 -1.87652,-1.33034 -4.77262,6.59174 -2.49223,6.8173 -4.04101,13.56236 -4.0578,17.67208 -0.0114,2.78595 0.0804,2.91675 2.04697,2.91675 l 2.05888,0 0.005,-4.28934 z m 73.31566,-5.63221 c 3.64782,-3.56955 8.63982,-8.08923 11.09332,-10.04374 8.86614,-7.06292 8.57942,-6.75044 7.33537,-7.99448 -0.90455,-0.90455 -1.42643,-0.96294 -2.84198,-0.31798 -3.37184,1.53632 -24.39593,20.89416 -24.39593,22.46246 0,0.7007 1.34996,2.38382 1.91196,2.38382 0.14566,0 3.24943,-2.92054 6.89726,-6.49008 z m 42.7326,-5.21424 c 1.52006,-2.55863 3.35968,-6.22046 4.08806,-8.13739 1.54913,-4.07696 3.39145,-14.0384 3.39145,-18.33753 0,-3.5365 -0.53921,-3.68347 -6.27454,-1.71022 -4.98112,1.71375 -22.54983,10.47306 -22.54983,11.24275 0,0.71025 1.75139,2.56752 2.42114,2.56752 0.25316,0 2.20543,-1.07705 4.33836,-2.39345 4.62137,-2.85219 14.73345,-7.21467 16.72334,-7.21467 1.31501,0 1.38087,0.27119 0.95203,3.91994 -0.99738,8.48617 -4.55172,17.17444 -9.3964,22.96867 -2.11672,2.53159 -2.6794,3.76654 -2.65792,5.8335 l 0.0272,2.62205 3.08666,-3.35456 c 1.69767,-1.845 4.33035,-5.44798 5.8504,-8.00661 z m -101.87877,6.50149 c 1.46929,-6.26287 1.14301,-9.94236 -1.30671,-14.73603 -2.87408,-5.62405 -7.61588,-9.6021 -12.97932,-10.88877 -4.83746,-1.16049 -7.77039,-0.6217 -11.48464,2.1098 -2.90756,2.13824 -2.91618,2.15742 -1.57319,3.50041 1.34299,1.34299 1.3615,1.34217 3.37978,-0.15001 6.48793,-4.79673 17.54597,-0.30864 20.30757,8.24215 1.30989,4.05585 1.409,6.58623 0.42509,10.85346 -0.5034,2.18326 -0.47099,3.25721 0.11978,3.96905 1.31428,1.58361 2.26837,0.69439 3.11164,-2.90006 z m -38.08693,-1.48854 c 0.15151,-2.64468 0.1587,-2.60761 -1.76354,-9.0934 -0.95089,-3.20843 -1.8766,-8.14975 -2.05713,-10.98071 -0.18051,-2.83097 -0.16919,-4.44893 0.0252,-3.59548 0.19436,0.85345 1.33516,2.05179 2.53511,2.66296 3.54461,1.80538 12.12947,8.4256 17.10955,13.19404 2.54837,2.44007 4.75133,4.30822 4.89546,4.15144 0.14414,-0.15678 0.459,-1.21154 0.69967,-2.34393 0.40588,-1.90958 0.0509,-2.38901 -4.89546,-6.61157 -6.65085,-5.67764 -11.02618,-9.01197 -16.28953,-12.41384 -3.71653,-2.40211 -4.15464,-2.53609 -4.64816,-1.42146 -0.29969,0.67685 -0.40796,-2.22693 -0.24062,-6.45284 l 0.30427,-7.68346 -1.65466,0.7539 c -2.22937,1.01578 -2.65932,3.77377 -2.08522,13.37628 0.54533,9.12154 1.36858,14.05439 3.29889,19.7667 2.78017,8.22728 4.53695,10.69365 4.76622,6.69137 z m 57.10395,-5.14969 c 1.2441,-4.8372 3.79408,-16.40505 6.69381,-30.36605 0.78399,-3.77462 2.32194,-10.35818 3.41766,-14.63014 1.09572,-4.27196 1.98535,-8.44119 1.97695,-9.26497 -0.0177,-1.74103 -2.35149,-5.06734 -2.91526,-4.15514 -0.20996,0.33973 -1.19538,4.47377 -2.18982,9.18676 -0.99443,4.71299 -2.54921,11.50298 -3.45504,15.08887 -0.90583,3.58589 -2.90456,12.82791 -4.44162,20.53781 -2.34105,11.74279 -2.67243,14.38832 -2.04169,16.2995 0.41413,1.25481 0.96064,2.28036 1.21446,2.279 0.25382,-10e-4 1.03708,-2.2404 1.74055,-4.97564 z m 18.61745,-8.83843 c 3.7285,-7.43017 10.49788,-18.87049 17.06542,-28.84072 1.16527,-1.76901 1.15614,-1.85393 -0.30973,-2.88067 -1.39851,-0.97955 -1.59699,-0.9462 -2.67932,0.45016 -0.64291,0.82944 -1.29227,1.81691 -1.44304,2.19437 -0.15076,0.37746 -2.66754,4.27552 -5.59284,8.66235 -2.92529,4.38684 -5.31872,8.19378 -5.31872,8.45986 0,0.26608 -1.86981,3.83899 -4.15513,7.93978 -4.02897,7.22962 -4.13235,7.54057 -3.40501,10.24167 0.41256,1.53213 0.8774,2.78568 1.03297,2.78568 0.15559,0 2.31801,-4.05561 4.8054,-9.01248 z m 23.87103,5.75259 c 0.99482,-1.0993 0.96675,-1.49165 -0.33155,-4.63249 -2.47593,-5.98981 -8.17667,-18.29317 -9.4344,-20.36132 l -1.21208,-1.99311 -1.13926,1.73874 c -1.11085,1.69537 -1.03021,1.96554 3.23349,10.83406 2.40501,5.00244 4.92418,10.56229 5.59815,12.35523 1.35337,3.60031 1.69628,3.81519 3.28565,2.05889 z m 23.78423,-5.68773 c 0.0626,-2.25947 -5.11419,-7.37774 -10.24618,-10.13039 -9.07195,-4.86593 -21.45706,-4.3545 -17.69191,0.73056 0.75453,1.01905 1.25958,1.07917 3.599,0.42841 3.34324,-0.92999 7.69598,-0.3897 11.92465,1.48016 3.85358,1.70402 6.31015,3.96296 9.18979,8.45048 1.83995,2.86731 2.23657,3.1757 2.66877,2.07506 0.27921,-0.71101 0.52936,-2.07644 0.55588,-3.03428 z m -89.85634,-7.56995 c 0,-0.40304 2.66014,-6.19365 5.91141,-12.86803 12.33696,-25.32592 12.09769,-24.76406 11.62308,-27.29393 -0.24162,-1.28799 -0.65695,-2.3293 -0.92294,-2.31402 -0.266,0.0152 -3.78934,6.8868 -7.82965,15.27005 -13.00053,26.9748 -12.48032,25.76071 -11.52909,26.90687 0.98685,1.18908 2.74719,1.38071 2.74719,0.29906 z m 97.19499,-15.63552 c -0.44439,-7.10975 -3.07731,-19.49818 -4.43185,-20.85272 -0.43916,-0.43916 -0.94045,-0.17188 -1.44469,0.7703 -0.59458,1.11099 -0.51587,2.3512 0.34226,5.39246 0.67914,2.40689 1.25688,7.89357 1.47909,14.04658 l 0.36464,10.09693 2.07369,-1.07235 2.07369,-1.07234 -0.45683,-7.30886 z m -94.44981,-1.00435 c 0,-0.35158 -2.30716,-4.72663 -5.12702,-9.7223 -2.81985,-4.99568 -5.45045,-9.93377 -5.84577,-10.97354 l -0.71876,-1.89048 -1.34958,1.71572 -1.34959,1.71573 2.40354,4.61122 c 1.32194,2.53618 4.15411,7.54474 6.29371,11.13014 3.50657,5.87608 3.97909,6.39732 4.79182,5.28584 0.49591,-0.67819 0.90165,-1.52074 0.90165,-1.87233 z M 554.75142,668.49 c 0.52245,-3.45319 -1.72165,-12.84233 -6.82298,-28.54676 -3.78055,-11.63843 -5.67948,-16.38237 -6.55764,-16.38237 -0.27067,0 -0.88182,0.72817 -1.35813,1.61814 -0.73551,1.37431 -0.65898,2.02394 0.50784,4.31109 2.33435,4.5757 6.08483,16.61465 9.46508,30.38263 3.23647,13.1824 3.89499,14.37308 4.76583,8.61727 z m 87.4669,2.47485 c 0,-6.41192 -1.85002,-14.59413 -5.48376,-24.25331 -5.26822,-14.00397 -18.04819,-26.56694 -32.54256,-31.98997 l -3.83764,-1.43585 0,1.6738 c 0,1.41006 0.94616,2.16307 6.00507,4.77912 10.21629,5.28304 18.84133,13.58059 23.62892,22.73175 3.82766,7.31633 8.81108,24.50039 7.36444,25.39446 -0.51617,0.31902 -7.20126,-1.16014 -9.86774,-2.18336 -0.76382,-0.29311 -1.0515,0.0455 -1.0515,1.23762 0,1.32299 0.63194,1.88605 3.25989,2.90453 3.62303,1.40413 9.47572,3.00226 11.32386,3.09207 0.88363,0.043 1.20102,-0.47261 1.20102,-1.95086 z m -161.05844,-0.81706 c 7.02427,-2.04181 22.40649,-10.00239 22.38743,-11.5859 -0.002,-0.18873 -0.42478,-0.8978 -0.9389,-1.57571 -0.87445,-1.15302 -1.28271,-0.99631 -6.3264,2.42848 -5.74862,3.90345 -12.22009,6.39812 -18.51746,7.13825 l -3.87286,0.45517 0.5036,-4.05152 c 1.38678,-11.15682 7.5989,-24.03957 15.98037,-33.14023 4.60163,-4.99648 5.66193,-6.55411 5.66193,-8.31768 0,-1.19346 -0.29346,-2.06699 -0.65214,-1.94116 -1.55188,0.54438 -11.25807,10.61805 -14.19124,14.72852 -5.66437,7.93789 -9.41756,18.31851 -11.22117,31.03561 -0.92878,6.54874 -0.63617,7.12921 3.32995,6.60595 1.74636,-0.2304 5.28197,-1.03131 7.85689,-1.77978 z m 98.56242,-0.86758 c 0.80433,-1.50291 0.34169,-2.5701 -5.72732,-13.21117 -3.6313,-6.3669 -8.52814,-15.50719 -10.88189,-20.31175 -2.35375,-4.80457 -4.50131,-8.74218 -4.77235,-8.75026 -0.27105,-0.008 -0.93919,0.8346 -1.48477,1.87262 -0.93835,1.78528 -0.82163,2.22123 2.15878,8.06397 1.73291,3.39715 5.20996,9.88264 7.72677,14.41218 2.51682,4.52954 5.74902,10.39736 7.18269,13.03959 3.96179,7.30158 4.33597,7.61682 5.79809,4.88482 z m 22.71931,-4.53822 c 1.33672,-0.37134 3.43994,-1.41999 4.67382,-2.33033 2.21633,-1.63515 2.22621,-1.6672 0.81822,-2.6534 -1.28007,-0.8966 -1.75604,-0.82896 -4.67383,0.66418 -2.52259,1.29091 -3.86213,1.5676 -5.99379,1.23809 -8.98021,-1.38821 -17.57061,-12.72895 -16.61985,-21.94094 0.43334,-4.19865 -0.74999,-6.64617 -2.30652,-4.77067 -1.45757,1.75626 -1.63723,9.10799 -0.31809,13.01618 2.59391,7.68491 6.61031,12.45565 13.05169,15.50297 4.34767,2.05682 7.3423,2.3924 11.36835,1.27392 z m 18.06533,-1.20446 c -0.25431,-1.03802 -0.65213,-1.96648 -0.88402,-2.06324 -2.29426,-0.95734 -13.34117,-8.13951 -16.84573,-10.95229 -4.19938,-3.37044 -4.50152,-3.49987 -5.18576,-2.22136 -0.86302,1.61255 -0.34622,2.65696 2.41978,4.89023 6.10146,4.92632 18.05667,12.20181 20.08719,12.22431 0.60551,0.007 0.73002,-0.56551 0.40854,-1.87765 z m -99.03828,0.49429 c 1.07031,-0.57281 1.17406,-0.94127 0.54753,-1.9445 -0.59689,-0.95577 -1.65716,-1.23778 -4.65367,-1.23778 -4.57205,0 -5.3148,-0.35701 -9.6988,-4.66181 -3.26304,-3.20409 -6.80608,-10.34366 -6.83257,-13.76832 -0.005,-0.74692 -0.26703,-1.7625 -0.58054,-2.25685 -0.43422,-0.68468 -0.81738,-0.52118 -1.6083,0.6863 -0.94276,1.4393 -0.89573,2.07892 0.51128,6.95334 3.03614,10.51838 9.56423,16.88611 17.34638,16.92031 2.00649,0.009 4.2424,-0.302 4.96869,-0.69069 z m -32.06561,-1.42476 c 1.41905,-0.64656 1.79084,-1.53533 2.51183,-6.00471 0.46543,-2.88521 1.43253,-6.73324 2.14909,-8.5512 2.78905,-7.07587 8.94243,-14.62528 14.4985,-17.78778 1.41548,-0.80569 2.5736,-1.87127 2.5736,-2.36796 0,-0.49668 0.26346,-0.90307 0.58546,-0.90307 0.32201,0 0.77244,2.85671 1.00095,6.34823 0.40203,6.14255 1.58485,11.49543 2.54014,11.49543 0.25563,0 0.98666,-0.57667 1.62451,-1.28149 0.9698,-1.07161 1.04617,-1.77412 0.4663,-4.28934 -0.3814,-1.65432 -0.701,-4.76489 -0.71022,-6.91238 l -0.0168,-3.90454 3.07667,1.04832 c 4.27679,1.45725 7.19062,3.59608 8.74303,6.4176 1.97662,3.59255 1.33883,10.64538 -1.50744,16.66951 -1.96064,4.1497 -2.07222,4.72317 -1.16971,6.01169 0.98894,1.41191 1.01049,1.4064 2.4602,-0.62954 0.80439,-1.12965 2.25018,-4.14653 3.21287,-6.70416 2.00903,-5.33749 2.33708,-12.38763 0.75284,-16.17924 -1.30653,-3.12697 -6.69311,-7.74305 -10.58157,-9.06799 -4.0271,-1.37217 -4.98689,-1.36007 -4.98689,0.0629 0,0.6291 -0.14039,1.00342 -0.31199,0.83182 -0.37117,-0.37116 0.76754,-8.81131 1.41718,-10.50424 0.38201,-0.99551 0.0892,-1.14557 -1.87029,-0.95836 l -2.32322,0.22198 -0.63468,5.00303 c -0.42867,3.37912 -0.8988,4.90167 -1.44841,4.69077 -1.52853,-0.58655 -7.51926,3.53268 -12.18163,8.37612 -6.20072,6.44151 -10.16701,15.44951 -11.76099,26.71079 -0.45743,3.23167 -0.4599,3.22885 1.89066,2.15786 z m 104.54194,-7.99136 c 4.35356,-8.0168 7.6411,-20.93185 5.64928,-22.19313 -1.98269,-1.2555 -2.52167,-0.47711 -3.55089,5.12809 -0.94784,5.16198 -5.101,16.22624 -6.71129,17.87922 -0.58969,0.60534 1.06279,3.13201 2.04839,3.13201 0.23184,0 1.38586,-1.77579 2.56451,-3.94619 z m 22.93404,-1.19225 c 3.00297,-3.97741 6.78421,-13.55155 6.80016,-17.21808 0.005,-1.33877 -0.58258,-2.66674 -1.60873,-3.63076 l -1.6179,-1.51994 -0.37258,3.97392 c -0.51205,5.46149 -2.75516,11.03692 -6.4713,16.08494 -2.93623,3.98858 -3.05353,4.30999 -1.88489,5.16452 0.68542,0.50119 1.48601,0.91125 1.7791,0.91125 0.29309,0 1.81236,-1.69464 3.37614,-3.76585 z m -105.33121,0.40788 c 1.47212,-1.09197 5.87423,-5.2215 9.78247,-9.17674 6.43191,-6.50927 7.03173,-7.3299 6.32407,-8.65218 -0.43,-0.80345 -0.89118,-1.46083 -1.02485,-1.46083 -0.13367,0 -3.3103,3.01112 -7.05918,6.69138 -3.74889,3.68025 -8.33374,7.96199 -10.18857,9.51497 -2.96068,2.47888 -3.25867,2.96068 -2.44075,3.9462 1.24015,1.4943 1.49293,1.44695 4.60681,-0.8628 z m 81.9688,-9.04244 c 0.67264,-1.25683 0.14343,-2.06381 -4.61318,-7.03451 -2.95515,-3.08816 -6.90013,-7.70326 -8.76663,-10.25579 -2.96091,-4.04918 -3.52024,-4.51437 -4.38645,-3.64816 -1.3462,1.3462 -0.12512,4.25297 3.90704,9.30065 3.5517,4.44621 11.85497,13.05751 12.59044,13.05751 0.27994,0 0.85089,-0.63886 1.26878,-1.4197 z m 23.6849,-1.47548 c 0.44708,-2.03556 0.1938,-2.47985 -3.2279,-5.66193 -2.04218,-1.89918 -5.97453,-4.99721 -8.73856,-6.88452 -4.97369,-3.39608 -5.08827,-3.43393 -11.11098,-3.67063 -5.30679,-0.20855 -6.39521,-0.0477 -8.50627,1.25699 -2.68626,1.6602 -2.90067,2.19048 -1.39199,3.44257 0.75881,0.62976 1.5243,0.66635 2.91675,0.13944 1.03836,-0.39292 3.72725,-0.87799 5.97532,-1.07795 3.65579,-0.32515 4.52348,-0.13171 8.21721,1.83191 2.43859,1.29637 6.24519,4.3419 9.29535,7.43689 2.84104,2.8828 5.37262,5.27625 5.62572,5.31878 0.2531,0.0426 0.67851,-0.91667 0.94535,-2.13155 z m -57.09153,-21.69724 c 1.36868,-2.3907 3.23306,-5.29807 4.14305,-6.46083 1.36884,-1.74905 1.52841,-2.39094 0.92411,-3.71724 -0.40174,-0.88171 -0.97019,-1.60312 -1.26323,-1.60312 -1.07851,0 -8.19146,11.69701 -11.92072,19.60324 -3.06367,6.49514 -3.75111,8.56563 -3.39546,10.22671 0.24527,1.14551 0.59592,2.33646 0.77922,2.64656 0.18331,0.3101 2.11332,-3.24147 4.2889,-7.89239 2.17559,-4.65091 5.07545,-10.41223 6.44413,-12.80293 z m 6.61593,16.77951 c 0,-0.52249 1.21965,-3.37919 2.71033,-6.34823 5.09833,-10.15453 13.09769,-16.13156 21.82403,-16.30668 2.26662,-0.0455 3.60263,-0.3722 3.60305,-0.88113 10e-4,-1.34477 -2.055,-2.96577 -3.76182,-2.96577 -2.46153,0 -9.57064,2.38457 -12.8652,4.31531 -4.33413,2.53997 -9.88804,8.75941 -12.21557,13.67938 -2.25424,4.76504 -2.44714,6.07859 -1.18861,8.09381 0.98824,1.58242 1.89379,1.78005 1.89379,0.41331 z m -66.63379,-12.806 c -0.0686,-6.39427 1.51526,-11.75151 4.9607,-16.7798 2.09616,-3.05916 10.1104,-8.33112 13.54735,-8.91178 1.48944,-0.25165 3.24669,-1.0527 3.905,-1.78012 1.14188,-1.26177 1.1368,-1.32565 -0.11046,-1.38909 -9.05007,-0.46031 -18.02118,4.83777 -22.2597,13.14595 -0.81973,1.60682 -1.89238,4.33981 -2.38366,6.0733 -1.06593,3.76119 -1.96873,15.75787 -1.31421,17.46354 0.42475,1.10687 0.59397,1.08053 2.09054,-0.32542 1.48331,-1.3935 1.62269,-2.06137 1.56444,-7.49658 z m 38.3026,0.42527 c 2.41621,-2.99107 5.19056,-6.79904 6.16521,-8.46215 1.76289,-3.00814 1.76507,-3.03086 0.42055,-4.37537 -1.34451,-1.34451 -1.36441,-1.33086 -3.83132,2.62864 -1.36389,2.18911 -4.49312,6.44025 -6.95387,9.44701 -4.17746,5.10441 -4.40074,5.54784 -3.36805,6.68894 1.39527,1.54176 1.77318,1.24579 7.56748,-5.92707 z m 62.6458,-1.59621 c -3e-4,-6.5856 -3.22169,-17.87452 -5.96596,-20.9069 -1.0558,-1.16664 -4.73257,-1.79248 -4.17931,-0.71138 3.60705,7.04845 6.02762,15.35175 6.02762,20.67658 0,2.77728 -0.0126,2.76533 3.60305,3.42185 0.2831,0.0514 0.51466,-1.06467 0.5146,-2.48015 z m 21.96154,0.0842 c 0,-1.38605 -4.7339,-9.66735 -7.46193,-13.05362 -4.10695,-5.0979 -11.41425,-10.73985 -16.25635,-12.55152 -3.98609,-1.49138 -12.30145,-1.95441 -14.55195,-0.8103 -0.65544,0.33321 -3.36557,1.25653 -6.02253,2.05182 -2.65697,0.7953 -6.11726,2.39203 -7.68954,3.5483 -2.61754,1.92496 -2.79383,2.24466 -2.08982,3.78979 0.71293,1.56472 0.87291,1.61205 2.19917,0.6506 10.4086,-7.54557 23.19296,-8.48368 32.67695,-2.39783 3.9579,2.53979 10.34948,9.14325 11.96362,12.36026 1.59296,3.17477 7.23238,8.17489 7.23238,6.4125 z m -67.94315,-3.45375 c 0,-1.05366 -4.64398,-7.91948 -8.04119,-11.88835 -3.06377,-3.57933 -8.56218,-7.64004 -12.38996,-9.1503 -3.66274,-1.44514 -4.87105,-1.45111 -6.43936,-0.0318 -1.17444,1.06286 -1.00412,1.2078 3.10742,2.64448 7.8773,2.75254 12.9267,7.20094 18.95903,16.70241 2.70303,4.25751 3.19535,4.72316 3.94619,3.73234 0.47183,-0.62262 0.85787,-1.52657 0.85787,-2.00876 z m -17.15736,-1.94034 c 0,-1.25353 -7.37868,-6.41839 -10.54548,-7.38153 -1.5605,-0.4746 -5.92559,-0.85296 -9.70021,-0.8408 -6.02374,0.0194 -7.3752,0.25616 -11.05211,1.93607 -3.58572,1.63826 -4.29924,2.27263 -4.95334,4.4039 -0.4203,1.36947 -0.64408,2.61005 -0.49728,2.75685 0.1468,0.14679 1.14047,-0.37735 2.20817,-1.16477 1.06769,-0.78743 4.2575,-2.08084 7.08847,-2.87425 8.89673,-2.49342 18.00158,-0.9348 22.99086,3.93569 1.83752,1.79377 2.18802,1.90379 3.2599,1.02325 0.66056,-0.54264 1.20102,-1.35013 1.20102,-1.79441 z m 35.05574,-0.0584 c 1.12213,-1.01551 1.01799,-1.37371 -1.77061,-6.09044 -3.44523,-5.82736 -6.61742,-12.88414 -8.17075,-18.17648 -0.60174,-2.05018 -1.09408,-3.82597 -1.09408,-3.94619 0,-1.43414 13.37034,1.87625 18.28161,4.52639 2.43839,1.31577 4.18513,1.80609 5.66192,1.58934 1.17462,-0.1724 2.13512,-0.51002 2.13444,-0.75027 -6.8e-4,-0.24026 -1.33377,-1.27864 -2.96242,-2.30751 -5.92882,-3.74541 -18.03408,-7.3943 -24.53072,-7.3943 -3.15584,0 -3.38889,0.11781 -3.38889,1.71301 0,2.23177 2.2615,8.78708 5.62865,16.31555 2.85625,6.38616 7.94583,15.59987 8.61725,15.59987 0.22074,0 0.93787,-0.48554 1.5936,-1.07897 z m -51.84676,-11.56947 c 1.92046,-4.04706 9.766,-11.22128 15.07528,-13.78533 5.77772,-2.79029 14.76365,-4.2761 14.74357,-2.43785 -0.0184,1.68554 -2.41562,10.39514 -3.6856,13.39065 -1.09796,2.58976 -1.08995,2.76311 0.18668,4.03974 1.32096,1.32096 1.3502,1.30143 3.02178,-2.01957 2.1853,-4.34163 5.0534,-12.95429 5.65922,-16.9942 0.53878,-3.59288 1.01832,-3.35525 -6.41478,-3.17866 -8.10424,0.19254 -16.30122,3.14065 -22.55085,8.11058 -3.10977,2.47301 -6.82935,7.04861 -10.84538,13.34132 l -1.20448,1.88731 2.44876,0 c 2.11442,0 2.60127,-0.3214 3.5658,-2.35399 z"
       id="path4226"
       inkscape:connector-curvature="0" />
  </g>
</svg>
